<svg id="Layer_1" data-name="Layer 1" xmlns="http://www.w3.org/2000/svg" viewBox="0 0 439.79 298.41">
  <title>book_globe</title>
  <path d="M57.17,298.4c-19.5.2-48.6-10.6-43.7-34.8,3.3-16.4-10.5-31.8-13-48.3-2.9-19,7.7-39.2,25.8-49.1,6.4-3.5,14-6,18.4-11.6,13.7-17-9.3-38.2-.5-61,5.1-13.1,20-20.3,39.9-19.1,20.4,1.3,40-2.5,42.5-21,2.11-14.9,1.91-25.4,17.7-38.2C170.48-6,236-8.8,249.27,31.2c3.91,11.6,14.9,37,53.21,15.5,29.79-16.8,100.4,2.6,77.79,51-8.89,19.1,8.61,25.2,35.71,35.1,20.29,7.4,37.29,44.3-4.31,76-6,4.5,8,17.4,13.81,22.1,33.4,27,2,66.8-29.4,67.5C396.08,298.4,76.67,298.2,57.17,298.4ZM103.38,39.5c-11.11-2.5-14.61,9-14.21,17.3a12.29,12.29,0,0,0,.9,4.7,8.85,8.85,0,0,0,5.5,3.9,24,24,0,0,0,11.31,0,12.61,12.61,0,0,0,6.5-3C120.18,55.6,111.68,41.3,103.38,39.5Zm189.5-4.9c-.21,2.9-2.5,5.4-5.21,6.6s-5.79,1.6-8.79,1.8c-4.3.3-9.3.3-12.21-2.8-2-2.1-2.5-5.3-2.09-8.1,1.19-7.2,5.8-14.3,14.19-13.4C285.17,19.5,293.17,28.5,292.88,34.6Zm10.5-17.3a4.56,4.56,0,0,1-3.61.6,4.13,4.13,0,0,1-1.79-.8c-3.6-2.6-2.21-7.5,2.4-7C304,10.5,307.48,14.6,303.38,17.3Zm108.79,90c1.21,1.7,2.1,3.8,1.41,5.7a5.73,5.73,0,0,1-3.1,3,11.52,11.52,0,0,1-9.1-.2,28,28,0,0,1-7.8-5,9.59,9.59,0,0,1-2.7-3,6.92,6.92,0,0,1-.5-2.8,13.8,13.8,0,0,1,.6-5,20.2,20.2,0,0,1,3.29-5.7c2-2.6,4.9-5.7,8.71-5.1,2.29.4,2.79,1.7,2.9,3.8,0,2.3-.5,4.5.39,6.8C407.27,102.8,410.38,104.8,412.17,107.3ZM18.77,156.5a9.86,9.86,0,0,1-13.2-1.1c-11.2-13-1.3-45,19.6-40.4,7.8,1.7,13.7,10.4,10.2,18-2,4.3-7.3,6.5-9.8,10.5C23,147.7,22.77,153.2,18.77,156.5Z" transform="translate(0 0)" fill="#fff" opacity="0.05" style="isolation: isolate"/>
  <path d="M196.63,183.06c0-4.7-3.1-8.7-4.5-13.2-11.5-39.1-29.1-13.3-26.8-35.9,1.9-18.4-24.5-27.3-26.7-19.3-1.7,6.4-10.1,9.9-14.1,4.5-5.1-6.8-3.1-16.5-7.6-23.6a16.8,16.8,0,0,0-12.6-7.4c-4.6-.4-9.4,1-13.9-.2-8-2.2-12.1-11.8-20.3-12.9a3.8,3.8,0,0,0-2.1.2c-1.3.5-1.8,2-2.1,3.3-.9,3.5-1.7,7.4.4,10.4,1.9,2.7,5.7,3.8,7.5,6.5s1.2,6.3.1,9.3-2.7,6.1-2.5,9.3c.2,4.6,4,8.6,8.4,10.5s9.5,2.3,14.5,2.3a12,12,0,0,1,3.8.4c3.9,1.3,4.8,6.6,2.3,9.7-1,1.2-2.3,2.2-3,3.5-1.9,3.5,1.5,7.8,5.5,9s8.3.2,12.5-.3,8.9-.4,12,2.2c3.9,3.4,3.5,9.2,5.8,13.8,2.4,4.9,7.9,7.9,13.5,9.2s11.4,1.1,17.2,1.4c12.1.6,24.2,3.2,34.6,9" transform="translate(0 0)" fill="#4dc591"/>
  <path d="M94.87,144c3.2,10.9,13.1,20.1,22,27.3,9.4,7.6,19.89,13.9,30.5,19.9,22.19,12.6,45.39,24.3,62.6,42.9.5.5,1.29-.2.79-.7-15.09-17.7-36.59-29-57.2-40.3-10.39-5.8-20.89-11.6-30.5-18.6-10.79-7.8-23.8-18-27.8-30.6C95.17,143.65,94.77,143.75,94.87,144Z" transform="translate(0 0)" fill="#444472" opacity="0.2" style="isolation: isolate"/>
  <path d="M145.85,211.9c-2.1,3.6-5.6,6.1-9,8.5-7.4,5.1-15.2,9.8-23.8,12.3a17.57,17.57,0,0,1-6.8,1,8.16,8.16,0,0,1-6-3c-1.9-2.5-1.7-6-2.1-9.2a4.36,4.36,0,0,0-1.1-2.7c-1.7-1.6-4.3-.1-6.1,1.3-1.5,1.2-3,2.4-4.4,3.6-1.8,1.5-4.2,3-6.4,2.1a4.33,4.33,0,0,1-2.1-5,9,9,0,0,1,3.6-4.6c1.6-1.1,3.5-2,5.1-3.2a2.13,2.13,0,0,0,.9-1c.4-1.1-.8-2.1-1.8-2.5a9.5,9.5,0,0,0-7.4.2c-2.3,1-4,2.9-6,4.4s-4.4,2.8-6.8,2.3a8.88,8.88,0,0,1-5.4-4.5c-1.8-3,0-9.2,5.2-9.3,2.9-.1,5.8,0,8.7,0,1.9,0,4.3-.5,4.6-2.4.2-1.5-1.4-2.6-2.8-3.2-5.5-2.3-11.8-1.4-17.7-2.2-9.1-1.2-5.7-15.9,5.1-15.7a17.75,17.75,0,0,1,8.1,2.1c2.9,1.5,5.4,3.9,8.6,4.7a6,6,0,0,0,3.5,0,2.63,2.63,0,0,0,1.6-2.9c-.3-1.2-1.5-1.8-2.5-2.5-2.8-2.1-4-6-3.7-9.5.2-2.1.9-4.3,2.7-5.2,2.2-1.2,5,0,6.6,1.9s2.5,4.2,3.8,6.3,3.3,4.1,5.8,4.2a1.8,1.8,0,0,0,1.2-.3,2.41,2.41,0,0,0,.6-.8c.9-2.2.1-4.7-.2-7.1s.5-5.3,2.8-5.9c1.9-.5,3.8.9,4.7,2.7s1.2,3.7,2,5.5a12.25,12.25,0,0,0,14.6,6.8,44.3,44.3,0,0,1,4.7-1.7,10.21,10.21,0,0,1,7.8,2.3,25.61,25.61,0,0,1,5.3,6.5c3.8,6.1,7.2,13.5,4.7,20.3" transform="translate(0 0)" fill="#4dc591"/>
  <g opacity="0.41">
    <path d="M75,197.74c.3-.1.6-.1.9-.2-.3.1-.6.1-.9.2Z" transform="translate(0 0)" fill="#444472" opacity="0.41" style="isolation: isolate"/>
    <path d="M78.65,196.74a22.88,22.88,0,0,1-2.8.8A8.74,8.74,0,0,0,78.65,196.74Z" transform="translate(0 0)" fill="#444472" opacity="0.41" style="isolation: isolate"/>
  </g>
  <path d="M179.05,223.91c.88-5.66,5-10,7.34-15.21,20.07-45.38,34.22-10.91,36.05-38.7,1.52-22.69,31.92-28.73,32.78-18.65.62,8,9.08,13.72,14.5,7.93,6.88-7.31,6.55-19.38,12.86-27.27a18.63,18.63,0,0,1,15.13-6.82c5.09.31,10,2.91,15.15,2.22,9.11-1.25,15.41-12.2,24.54-12a3.3,3.3,0,0,1,2.21.58c1.32.91,1.62,2.8,1.69,4.5.31,4.31.48,9.27-2.47,12.55-2.56,2.95-6.9,3.62-9.38,6.62s-2.52,7.43-2,11.28,1.73,7.84,1,11.71c-1.11,5.48-5.95,9.69-11.24,11.26s-10.84,1-16.15.18a14,14,0,0,0-4.3-.19c-4.51.9-6.53,7.2-4.46,11.37.77,1.61,2.08,3,2.58,4.81,1.34,4.61-3.16,9.22-7.71,9.84s-9.05-1.25-13.49-2.57-9.52-2.12-13.39.56c-4.93,3.38-5.63,10.58-8.94,15.61-3.53,5.49-10.11,8.21-16.46,8.7s-12.61-.61-18.9-1.34C203,219.66,191.46,218.77,179.05,223.91Z" transform="translate(0 0)" fill="#4dc591"/>
  <path d="M165,220.85c9.48-10.12,19.06-20.24,26.46-32A108,108,0,0,0,207.7,125.3c-.18-2.4-1.06-5.51-3.46-5.53a4.39,4.39,0,0,0-2.81,1.28,33.5,33.5,0,0,0-5.64,5.65c-1.12,1.5-2.53,3.18-4.33,3a3.82,3.82,0,0,1-2.78-2.32c-3-5.33-1.2-12.11,2-17.19s7.88-9.23,11.12-14.41,4.9-12,1.84-17.18c-.78-1.31-2-2.52-3.47-2.53a4.26,4.26,0,0,0-1.91.58c-6.63,3.25-9.09,11.33-12.25,18a3.35,3.35,0,0,1-1.51,1.79c-1.11.39-2.2-.52-2.89-1.42-3.56-5.23-.4-12.11,2.25-17.89,3.56-7.77,6.23-16.64,3.8-24.86a8.24,8.24,0,0,0-3.06-4.63c-3.78-2.23-8.61,1.73-9.45,6s.53,8.71.59,13.11a4,4,0,0,1-.92,3c-1.31,1.19-3.61.37-4.49-1.14s-.78-3.4-.56-5.2C171,49.4,171.75,34,163,22.93a7,7,0,0,0-3.27-2.63c-2.7-.72-5.32,1.36-6.64,3.75-3.55,6.27-1.91,14.18.93,20.81s6.9,12.85,8.24,19.87a12.79,12.79,0,0,1-.46,7.49c-1,2.29-3.44,4.17-5.94,4-3.29-.32-5.37-3.64-6.74-6.65-1.18-2.41-2.36-4.82-3.54-7.13-.69-1.41-1.68-3-3.28-3-2-.12-3,2.48-3,4.58,0,5.89,3.21,11.42,7.37,15.66s9,7.57,13.61,11.41a11.52,11.52,0,0,1,3.07,3.53,9.37,9.37,0,0,1,.35,6,15,15,0,0,1-7.08,9.24c-2.61,1.48-5.61,2.15-7.93,4a10.3,10.3,0,0,0-2.21,13.39c2.37,3.72,6.86,5.35,11.15,6.09s8.8.67,13,2c1.9.61,3.79,1.43,4.88,3,1.58,2.31,1.15,5.41,0,7.9a16.82,16.82,0,0,1-8.67,8.53c-3.51,1.47-7.41,1.73-11,2.9s-7.33,3.44-8.26,7.14c-1.35,5.39,3.81,10.13,8.79,12.67S167.23,182,169.59,187c1.67,3.41,1.13,7.51.4,11.2a100.84,100.84,0,0,1-7.59,23.34" transform="translate(0 0)" fill="#4dc591"/>
  <path d="M253.6,128.6A36.75,36.75,0,0,0,264.1,116c2.5-5.1,3.5-10.9,4.3-16.7.8-6.4,1.4-12.8,1.6-19.3-9.6,1.4-19.1,3.3-28.1,7s-17.7,9-23.8,17c-10.5,13.8-10.1,32-10.1,32S230.3,146.2,253.6,128.6Z" transform="translate(0 0)" fill="#4dc591"/>
  <g opacity="0.41">
    <path d="M231.77,151.45c-.09.4-.2.7-.29,1.1a4.72,4.72,0,0,0,.2-1.1C231.68,151.35,231.77,151.45,231.77,151.45Z" transform="translate(0 0)" fill="#444472" opacity="0.41" style="isolation: isolate"/>
    <path d="M230.27,156c.41-1.1.8-2.2,1.21-3.4A19.6,19.6,0,0,1,230.27,156Z" transform="translate(0 0)" fill="#444472" opacity="0.41" style="isolation: isolate"/>
    <path d="M207.77,205.55c8.41,11.3,17.21,22.8,30,28.6-2.29-8.1-4.39-16.3-6.09-24.6-8.8-8.1-15.5-18.1-22.11-28.1-.09-.1.11-.2.11-.1,6.7,9.3,13.5,18.4,21.59,26.4a257.35,257.35,0,0,1-4.79-38.3c-.1,0-.21,0-.21-.1a52.4,52.4,0,0,1-5.7-17.6c0-.1.11-.1.11,0a52.71,52.71,0,0,0,5.8,16.9c-.1-2.1-.1-4.3-.21-6.4-.09-.1-.2-.2-.09-.4l.09-.1c0-3.6,0-7.2.21-10.9,0-.1.09,0,.09,0-.09,3.5-.09,7.1,0,10.6a20.2,20.2,0,0,0,3.7-5.4,18.58,18.58,0,0,1-3.7,6,244.88,244.88,0,0,0,3.5,34c10.31-6.8,13.61-19.4,19.31-29.9,0-.1.1,0,.1,0-5.6,10.7-8.6,23.8-19,30.6a.38.38,0,0,1-.3.1c.7,4.1,1.5,8.1,2.39,12.2a.49.49,0,0,1,.11.6c.8,3.5,1.59,6.9,2.5,10.3a81.49,81.49,0,0,0,24.09-28.6c0-.1.11,0,.11,0-5.4,11.9-13.4,22.1-24,29.2,1.8,7.1,3.8,14.1,6,21.1,10.89-6.7,21.29-14.9,24.6-28.4,0-.1.1,0,.1,0-3.1,13.7-13.51,22.2-24.4,29.2.7,2.2,1.39,4.3,2.09,6.5.3.9-1,1.4-1.29.5-1.6-4.8-3-9.6-4.41-14.4-13.5-5.6-22.09-17.4-30.39-29.4C207.57,205.55,207.68,205.45,207.77,205.55Z" transform="translate(0 0)" fill="#444472" opacity="0.47" style="isolation: isolate"/>
  </g>
  <path d="M213.27,91.62l-68,148.92,2.82,1.29,68-148.92Z" transform="translate(0 0)" fill="#00664f"/>
  <path d="M144.77,245.35a4.61,4.61,0,0,1,3.8-8.4,77.28,77.28,0,1,0,64.2-140.6,4.61,4.61,0,0,1,3.8-8.4,86.5,86.5,0,0,1-71.8,157.4Z" transform="translate(0 0)" fill="#00664f"/>
  <path d="M180.68,239.15a72.4,72.4,0,1,0-72.4-72.4A72.4,72.4,0,0,0,180.68,239.15Z" transform="translate(0 0)" fill="#b0ddc9"/>
  <path d="M246.57,196.85a74.26,74.26,0,0,1-9.19,15.1,49.45,49.45,0,0,1-27.4,3.2,6.33,6.33,0,0,1-3.3-1.3c-2.7-2.4-.41-6.7-.41-10.3,0-3-1.79-5.7-3.5-8.2-3.79-5.6-7.59-12.5-5.29-19s10-10,12-16.6c1.79-6.3-2.3-12.8-2.41-19.4-.09-5.1,2.41-10,5.91-13.6a34.22,34.22,0,0,1,13-7.7,24.09,24.09,0,0,1,8-1.5A72.74,72.74,0,0,1,246.57,196.85Zm-87.89,37.5c3.7-1.8,6.8-5.2,7.5-9.2.7-4.4-1.5-8.7-4.2-12.2s-6.1-6.5-8.41-10.3a10.08,10.08,0,0,1-1.69-5.3c.1-5.2,5.69-8.8,6.3-13.9.59-4.5-3-8.6-7-10.6s-8.7-2.5-13.11-3.7-8.8-3.6-10.6-7.8c-2.19-5.3.6-11.6-2.4-16.6-1.89-3.2-6.89-5.3-11.19-6a72.43,72.43,0,0,0,36.69,93.9c2.11.9,4.11,1.8,6.2,2.5A10.94,10.94,0,0,0,158.68,234.35Zm-20.11-126.5a8.83,8.83,0,0,0,.91,2.3c3.5,7.4,11,13,12.09,21.1.31,2.2.2,4.7,1.61,6.4a7.37,7.37,0,0,0,2.89,1.9,23.81,23.81,0,0,0,26.81-6.5c6.1-7.4,7.19-17.7,12-26,1.39-2.4,3.1-4.7,3.1-7.5a6.48,6.48,0,0,0-1-3.3A72.11,72.11,0,0,0,138.57,107.85Z" transform="translate(0 0)" fill="#2ea889"/>
  <path d="M187.77,251.45h-14.2v33.8h14.2Z" transform="translate(0 0)" fill="#00664f"/>
  <path d="M236.77,297.35H124.57a6.6,6.6,0,1,1,0-13.2H236.68a6.59,6.59,0,0,1,6.59,6.6A6.5,6.5,0,0,1,236.77,297.35Z" transform="translate(0 0)" fill="#00664f"/>
  <path d="M390.58,226a12.9,12.9,0,1,0,0-25.8h-151q7.5,12.9,0,25.8Z" transform="translate(0 0)" fill="#ededed"/>
  <path d="M390.58,226a13,13,0,0,0,12.9-13.5,13.09,13.09,0,0,0-13.21-12.2H237.57a2,2,0,0,1,0-4h153a16.8,16.8,0,1,1,0,33.6h-153a2,2,0,0,1,0-4h153Z" transform="translate(0 0)" fill="#ffc278"/>
  <path d="M398.08,202.65l-12.2.1L363,203l-45.9.1-45.91-.1-22.9-.1-7.39-.1c-.11-.1-.11-.2-.2-.3l7.5-.1,22.9-.1,45.9-.1,45.9.1,22.89.1,11.81.1A.59.59,0,0,1,398.08,202.65Zm3,3c0-.1-.1-.1-.1-.2l-15-.2-22.9-.1-45.91-.1-45.9.1-22.89.1-6.31.1c0,.1.11.2.11.4l6.2.1,22.89.1,45.9.1L363,206l22.9-.1Zm1.59,3s0-.1-.09-.1l-16.7-.2-22.9-.1-45.9-.1-45.91.1-22.9.1-5.39.1a.6.6,0,0,0,.1.4l5.4.1,22.89.1,45.9.1L363,209l22.9-.1Zm-162,15.2,7.5.1,22.9.1,45.9.1,45.9-.1,22.89-.1,11.81-.1c.09-.1.19-.2.3-.2l-12.21-.1-22.9-.1-45.89-.1-45.9.1-22.91.1-7.39.1C240.77,223.55,240.77,223.75,240.68,223.85Zm160.3-3.1c0-.1.1-.1.1-.2l-15.1-.2-22.9-.1-45.91-.1-45.9.1-22.89.1-6.2.1c0,.1-.11.2-.11.4l6.31.1,22.89.1,45.9.1,45.91-.1L386,221Zm1.6-3.1s0-.1.09-.1l-16.69-.2-22.9-.1-45.91-.1-45.9.1-22.89.1-5.4.1a.6.6,0,0,1-.1.4l5.39.1,22.9.1,45.91.1,45.9-.1,22.9-.1Zm.8-3v-.1l-17.5-.2-22.9-.1-45.9-.1-45.91.1-22.9.1-5,.1v.4l5,.1,22.9.1,45.91.1L363,215l22.9-.1Zm0-3v-.1l-17.4-.2-22.9-.1-45.91-.1-45.9.1-22.89.1-5,.1v.4l5,.1,22.89.1,45.9.1L363,212l22.9-.1Z" transform="translate(0 0)" fill="#e1e3ef"/>
  <path d="M255.88,224.85l6.6-3.8,6.6,3.8v-16.6h-13.2Z" transform="translate(0 0)" fill="#ffc278"/>
  <path d="M252.48,259.65a12.9,12.9,0,1,1,0-25.8h151q-7.5,12.9,0,25.8Z" transform="translate(0 0)" fill="#ededed"/>
  <path d="M252.48,259.65a12.85,12.85,0,1,1,.29-25.7H405.38a2,2,0,0,0,0-4h-153a16.8,16.8,0,1,0,0,33.6h153a2,2,0,0,0,0-4H252.48Z" transform="translate(0 0)" fill="#ff7648"/>
  <path d="M245.27,236.05l11.81-.1,22.9-.1,45.9-.1,45.89.1,22.9.1,7.5.1c-.09.1-.09.2-.19.3l-7.4.1-22.91.1-45.9.1-45.89-.1-22.9-.1-12.21-.1A1,1,0,0,0,245.27,236.05Zm11.81,3.4,22.9.1,45.9.1,45.89-.1,22.9-.1,6.21-.1c0-.1.1-.2.1-.4l-6.31-.1-22.9-.1-45.89-.1-45.9.1-22.9.1-15,.2c0,.1-.09.1-.09.2Zm0,3,22.9.1,45.9.1,45.89-.1,22.9-.1,5.41-.1a.65.65,0,0,1,.09-.4l-5.4-.1-22.89-.1-45.9-.1-45.9.1-22.91.1-16.69.2a.1.1,0,0,1-.1.1Zm145.09,14.7-7.4-.1-22.89-.1-45.9-.1-45.9.1-22.91.1-12.19.1c.09.1.2.2.29.2l11.81.1,22.9.1,45.9.1,45.89-.1,22.9-.1,7.5-.1C402.27,257.45,402.27,257.25,402.17,257.15Zm-145.09-2.6,22.9.1,45.9.1,45.89-.1,22.9-.1,6.31-.1c0-.1-.1-.2-.1-.4l-6.21-.1-22.9-.1-45.89-.1-45.9.1-22.9.1-15.1.2c0,.1.09.1.09.2Zm0-3,22.9.1,45.9.1,45.89-.1,22.9-.1,5.41-.1a.6.6,0,0,0-.1-.4l-5.4-.1-22.91-.1-45.9-.1-45.89.1L257,251l-16.71.2a.1.1,0,0,0,.11.1Zm0-3,22.9.1,45.9.1,45.89-.1,22.9-.1,5-.1v-.4l-5-.1-22.9-.1-45.89-.1-45.9.1-22.9.1-17.51.2v.1Zm0-3,22.9.1,45.9.1,45.89-.1,22.9-.1,5-.1v-.4l-5-.1-22.9-.1-45.89-.1-45.9.1-22.9.1-17.4.2v.1Z" transform="translate(0 0)" fill="#e1e3ef"/>
  <path d="M390.58,293.35a12.9,12.9,0,1,0,0-25.8h-151q7.5,12.9,0,25.8Z" transform="translate(0 0)" fill="#ededed"/>
  <path d="M390.58,293.35a13,13,0,0,0,12.9-13.5,13.09,13.09,0,0,0-13.21-12.2H237.68a2,2,0,0,1,0-4h153a16.8,16.8,0,1,1,0,33.6h-153a2,2,0,0,1,0-4h152.9Z" transform="translate(0 0)" fill="#8f98ff"/>
  <path d="M398.08,270.05l-12.2.1-22.9.1-45.9.1-45.91-.1-22.9-.1-7.39-.1c-.11-.1-.11-.2-.2-.3l7.5-.1,22.9-.1,45.9-.1,45.9.1,22.89.1,11.81.1A1.07,1.07,0,0,1,398.08,270.05Zm3,3c0-.1-.1-.1-.1-.2l-15-.2-22.9-.1-45.91-.1-45.9.1-22.89.1-6.31.1c0,.1.11.2.11.4l6.2.1,22.89.1,45.9.1,45.91-.1,22.9-.1Zm1.59,3s0-.1-.09-.1l-16.7-.2-22.9-.1-45.9-.1-45.91.1-22.9.1-5.39.1a.6.6,0,0,0,.1.4l5.4.1,22.89.1,45.9.1,45.91-.1,22.9-.1ZM401,288.15c0-.1.1-.1.1-.2l-15.1-.2-22.9-.1-45.91-.1-45.9.1-22.89.1-6.2.1c0,.1-.11.2-.11.4l6.31.1,22.89.1,45.9.1,45.91-.1,22.9-.1Zm1.6-3.1s0-.1.09-.1l-16.69-.2-22.9-.1-45.91-.1-45.9.1-22.89.1-5.4.1a.6.6,0,0,1-.1.4l5.39.1,22.9.1,45.91.1,45.9-.1,22.9-.1Zm.8-3V282l-17.5-.2-22.9-.1-45.9-.1-45.91.1-22.9.1-5,.1v.4l5,.1,22.9.1,45.91.1,45.9-.1,22.9-.1Zm0-3V279l-17.4-.2-22.9-.1-45.91-.1-45.9.1-22.89.1-5,.1v.4l5,.1,22.89.1,45.9.1,45.91-.1,22.9-.1Z" transform="translate(0 0)" fill="#e1e3ef"/>
</svg>
